# xmcd CD database file
#
# Track frame offsets:
#	150
#	17159
#	35167
#	50508
#	67483
#	83971
#	97064
#	109153
#	126075
#	144966
#	159103
#	170136
#	184402
#	200039
#	214931
#
# Disc length: 3177 seconds
#
# Revision: 0
# Processed by: cddbd v1.5.2PL0 Copyright (c) Steve Scherf et al.
# Submitted via: CDex 1.51
#
DISCID=e90c670f
DTITLE=Get up and Dance special 54 - Get up And Dance special 54
DYEAR=2007
DGENRE=Country
TTITLE0=Could You Be Loved
TTITLE1=Candi Cha
TTITLE2=Mayo In Memphis
TTITLE3=Come Anytime
TTITLE4=Mississippi Tonight
TTITLE5=Black is Black
TTITLE6=Brothere Alfie
TTITLE7=Come On Joe
TTITLE8=The Bug x
TTITLE9=Sweet Talks And Good Lies
TTITLE10=Mexico x
TTITLE11=Alone Together
TTITLE12=Nada
TTITLE13=Country As A Boy Can Be x
TTITLE14=All good Things
EXTD=YEAR: 2007
EXTT0=
EXTT1=
EXTT2=
EXTT3=
EXTT4=
EXTT5=
EXTT6=
EXTT7=
EXTT8=
EXTT9=
EXTT10=
EXTT11=
EXTT12=
EXTT13=
EXTT14=
PLAYORDER=
